<svg width="1440" height="208" viewBox="0 0 1440 208" fill="none" xmlns="http://www.w3.org/2000/svg">
<g filter="url(#filter0_d_43_105)">
<path d="M0 0C562.355 0 877.645 0 1440 0V200H0V0Z" fill="#0D0D0D"/>
<path d="M0.5 0.5H3.29222H6.57882H9.8598H13.1352H16.405H19.6693H22.9281H26.1813H29.4291H32.6714H35.9083H39.1398H42.3659H45.5866H48.802H52.012H55.2168H58.4163H61.6105H64.7995H67.9832H71.1618H74.3352H77.5035H80.6666H83.8246H86.9776H90.1255H93.2683H96.4062H99.539H102.667H105.79H108.908H112.021H115.129H118.233H121.331H124.425H127.514H130.598H133.677H136.752H139.822H142.887H145.948H149.004H152.055H155.102H158.144H161.182H164.215H167.243H170.268H173.287H176.302H179.313H182.32H185.322H188.319H191.313H194.302H197.287H200.267H203.243H206.215H209.183H212.147H215.106H218.062H221.013H223.96H226.903H229.842H232.777H235.709H238.636H241.559H244.478H247.393H250.305H253.212H256.116H259.016H261.912H264.804H267.693H270.578H273.459H276.336H279.21H282.08H284.946H287.809H290.669H293.524H296.376H299.225H302.07H304.912H307.75H310.585H313.417H316.245H319.07H321.891H324.709H327.524H330.335H333.144H335.949H338.75H341.549H344.345H347.137H349.926H352.712H355.495H358.276H361.053H363.827H366.598H369.366H372.131H374.893H377.652H380.409H383.162H385.913H388.661H391.406H394.149H396.888H399.625H402.36H405.091H407.82H410.546H413.27H415.991H418.71H421.426H424.139H426.85H429.559H432.265H434.969H437.67H440.369H443.065H445.759H448.451H451.141H453.828H456.513H459.196H461.876H464.555H467.231H469.905H472.577H475.247H477.915H480.58H483.244H485.906H488.566H491.223H493.879H496.533H499.185H501.835H504.483H507.13H509.774H512.417H515.058H517.697H520.335H522.971H525.605H528.237H530.868H533.498H536.125H538.751H541.376H543.999H546.621H549.241H551.859H554.476H557.092H559.707H562.32H564.931H567.542H570.151H572.758H575.365H577.97H580.574H583.177H585.779H588.379H590.979H593.577H596.174H598.77H601.365H603.959H606.552H609.145H611.736H614.326H616.915H619.504H622.091H624.678H627.264H629.849H632.434H635.017H637.6H640.182H642.764H645.345H647.925H650.504H653.083H655.662H658.24H660.817H663.394H665.97H668.546H671.121H673.696H676.271H678.845H681.419H683.993H686.566H689.139H691.712H694.284H696.856H699.428H702H704.572H707.143H709.715H712.286H714.858H717.429H720H722.571H725.142H727.714H730.285H732.857H735.428H738H740.572H743.144H745.716H748.288H750.861H753.434H756.007H758.581H761.155H763.729H766.304H768.879H771.454H774.03H776.606H779.183H781.76H784.338H786.917H789.496H792.075H794.655H797.236H799.818H802.4H804.983H807.566H810.151H812.736H815.322H817.909H820.496H823.085H825.674H828.264H830.855H833.448H836.041H838.635H841.23H843.826H846.423H849.021H851.621H854.221H856.823H859.426H862.03H864.635H867.242H869.849H872.458H875.069H877.68H880.293H882.908H885.524H888.141H890.759H893.379H896.001H898.624H901.249H903.875H906.502H909.132H911.763H914.395H917.029H919.665H922.303H924.942H927.583H930.226H932.87H935.517H938.165H940.815H943.467H946.121H948.777H951.434H954.094H956.756H959.42H962.085H964.753H967.423H970.095H972.769H975.445H978.124H980.804H983.487H986.172H988.859H991.549H994.241H996.935H999.631H1002.33H1005.03H1007.73H1010.44H1013.15H1015.86H1018.57H1021.29H1024.01H1026.73H1029.45H1032.18H1034.91H1037.64H1040.37H1043.11H1045.85H1048.59H1051.34H1054.09H1056.84H1059.59H1062.35H1065.11H1067.87H1070.63H1073.4H1076.17H1078.95H1081.72H1084.5H1087.29H1090.07H1092.86H1095.66H1098.45H1101.25H1104.05H1106.86H1109.66H1112.48H1115.29H1118.11H1120.93H1123.76H1126.58H1129.41H1132.25H1135.09H1137.93H1140.77H1143.62H1146.48H1149.33H1152.19H1155.05H1157.92H1160.79H1163.66H1166.54H1169.42H1172.31H1175.2H1178.09H1180.98H1183.88H1186.79H1189.7H1192.61H1195.52H1198.44H1201.36H1204.29H1207.22H1210.16H1213.1H1216.04H1218.99H1221.94H1224.89H1227.85H1230.82H1233.78H1236.76H1239.73H1242.71H1245.7H1248.69H1251.68H1254.68H1257.68H1260.69H1263.7H1266.71H1269.73H1272.76H1275.79H1278.82H1281.86H1284.9H1287.94H1291H1294.05H1297.11H1300.18H1303.25H1306.32H1309.4H1312.49H1315.58H1318.67H1321.77H1324.87H1327.98H1331.09H1334.21H1337.33H1340.46H1343.59H1346.73H1349.87H1353.02H1356.18H1359.33H1362.5H1365.66H1368.84H1372.02H1375.2H1378.39H1381.58H1384.78H1387.99H1391.2H1394.41H1397.63H1400.86H1404.09H1407.33H1410.57H1413.82H1417.07H1420.33H1423.59H1426.86H1430.14H1433.42H1436.71H1439.5V199.5H0.5V0.5Z" stroke="black"/>
</g>
<defs>
<filter id="filter0_d_43_105" x="-4" y="0" width="1448" height="208" filterUnits="userSpaceOnUse" color-interpolation-filters="sRGB">
<feFlood flood-opacity="0" result="BackgroundImageFix"/>
<feColorMatrix in="SourceAlpha" type="matrix" values="0 0 0 0 0 0 0 0 0 0 0 0 0 0 0 0 0 0 127 0" result="hardAlpha"/>
<feOffset dy="4"/>
<feGaussianBlur stdDeviation="2"/>
<feComposite in2="hardAlpha" operator="out"/>
<feColorMatrix type="matrix" values="0 0 0 0 0 0 0 0 0 0 0 0 0 0 0 0 0 0 0.25 0"/>
<feBlend mode="normal" in2="BackgroundImageFix" result="effect1_dropShadow_43_105"/>
<feBlend mode="normal" in="SourceGraphic" in2="effect1_dropShadow_43_105" result="shape"/>
</filter>
</defs>
</svg>
